<svg xmlns="http://www.w3.org/2000/svg" width="48" height="48" viewBox="0 0 48 48">
  <defs>
    <linearGradient id="bd-grad" x1="0" y1="0" x2="48" y2="48" gradientUnits="userSpaceOnUse">
      <stop offset="0" stop-color="#3B82F6" />
      <stop offset="1" stop-color="#22D3EE" />
    </linearGradient>
  </defs>
  <rect width="48" height="48" rx="12" fill="#050914" />
  <rect width="48" height="48" rx="12" fill="url(#bd-grad)" fill-opacity="0.18" />
  <path d="M15 12h11a6 6 0 0 1 3.6 10.8A6.5 6.5 0 0 1 26 36H15a2 2 0 0 1-2-2V14a2 2 0 0 1 2-2Zm3.5 4v6.5H26a3.25 3.25 0 0 0 0-6.5h-7.5Zm0 10.5V32H26a3.25 3.25 0 0 0 0-6.5h-7.5Z" fill="url(#bd-grad)" />
</svg>
